<svg version="1.1" xmlns="http://www.w3.org/2000/svg" xmlns:xlink="http://www.w3.org/1999/xlink" width="1024px" height="1024px" viewBox="0,0,256,256"><g fill="#ffffff" fill-rule="nonzero" stroke="none" stroke-width="1" stroke-linecap="butt" stroke-linejoin="miter" stroke-miterlimit="10" stroke-dasharray="" stroke-dashoffset="0" font-family="none" font-weight="none" font-size="none" text-anchor="none" style="mix-blend-mode: normal"><g transform="scale(0.25,0.25)"><path d="M512,42.66667c-259.20667,0 -469.33333,210.12667 -469.33333,469.33333c0,259.20667 210.12667,469.33333 469.33333,469.33333c259.20667,0 469.33333,-210.12667 469.33333,-469.33333c0,-259.20667 -210.12667,-469.33333 -469.33333,-469.33333zM708.54667,543.16l-266.66667,176c-11.46487,7.55726 -26.15292,8.21081 -38.24369,1.70169c-12.09077,-6.50913 -19.63238,-19.13014 -19.63631,-32.86169v-351.96667c0.0007,-13.73599 7.54417,-26.36211 19.63948,-32.87218c12.0953,-6.51007 26.78851,-5.85243 38.25386,1.71218l266.66667,176c10.47024,6.90945 16.77045,18.61542 16.77045,31.16c0,12.54458 -6.30021,24.25055 -16.77045,31.16z"></path></g></g></svg>